<svg width="24" height="27" viewBox="0 0 24 27" fill="none" xmlns="http://www.w3.org/2000/svg">
<path d="M1 26H23" stroke="black" stroke-width="2" stroke-linecap="round" stroke-linejoin="round"/>
<path d="M10.2903 15L8.06778 4.625C7.97468 4.18793 7.9804 3.73559 8.08452 3.30101C8.18864 2.86644 8.38853 2.46062 8.66958 2.11319C8.95064 1.76577 9.30576 1.48552 9.70899 1.29292C10.1122 1.10033 10.5534 1.00025 11.0003 1H13.0003C13.4473 1.00006 13.8886 1.1 14.292 1.29252C14.6954 1.48504 15.0506 1.76526 15.3318 2.11271C15.613 2.46015 15.813 2.86604 15.9172 3.30071C16.0214 3.73538 16.0272 4.18783 15.934 4.625L13.7115 15" stroke="black" stroke-width="2" stroke-linecap="round" stroke-linejoin="round"/>
<path d="M22 15H2C1.44772 15 1 15.4477 1 16V21C1 21.5523 1.44772 22 2 22H22C22.5523 22 23 21.5523 23 21V16C23 15.4477 22.5523 15 22 15Z" stroke="black" stroke-width="2" stroke-linecap="round" stroke-linejoin="round"/>
</svg>
