<svg width="13" height="12" viewBox="0 0 13 12" fill="none" xmlns="http://www.w3.org/2000/svg">
<path d="M11.4762 6.50005L8.33333 6.50005L8.33333 1.00005L11.4762 1.00005C11.6151 1.00005 11.7483 1.04462 11.8466 1.12396C11.9448 1.2033 12 1.31092 12 1.42312L12 6.07697C12 6.18918 11.9448 6.29679 11.8466 6.37613C11.7483 6.45547 11.6151 6.50005 11.4762 6.50005Z" stroke="#6B7176" stroke-linecap="round" stroke-linejoin="round"/>
<path d="M8.33301 6.69927L6.40313 11.0833C5.99366 11.0833 5.60096 10.8986 5.31142 10.5697C5.02188 10.2408 4.85922 9.7948 4.85922 9.32971L4.85922 8.01449L1.77141 8.01449C1.66191 8.01445 1.55366 7.98796 1.45387 7.93676C1.35407 7.88556 1.26501 7.81083 1.19259 7.71754C1.12017 7.62425 1.06606 7.51452 1.03384 7.39565C1.00162 7.27677 0.992041 7.15148 1.00573 7.02808L1.58469 1.76721C1.60819 1.55536 1.69894 1.36053 1.83991 1.21928C1.98088 1.07803 2.16239 1.00006 2.35037 0.999995L8.33301 0.999995" stroke="#6B7176" stroke-linecap="round" stroke-linejoin="round"/>
</svg>
