<svg width="13" height="12" viewBox="0 0 13 12" fill="none" xmlns="http://www.w3.org/2000/svg">
<path d="M1.52381 5.95496H4.66667V11.455H1.52381C1.38489 11.455 1.25165 11.4104 1.15342 11.331C1.05519 11.2517 1 11.1441 1 11.0319V6.37803C1 6.26583 1.05519 6.15821 1.15342 6.07887C1.25165 5.99953 1.38489 5.95496 1.52381 5.95496Z" stroke="#6B7176" stroke-linecap="round" stroke-linejoin="round"/>
<path d="M4.66663 5.75576L6.59651 1.3717C7.00598 1.3717 7.39868 1.55646 7.68821 1.88533C7.97775 2.2142 8.14041 2.66024 8.14041 3.12533V4.44054H11.2282C11.3377 4.44058 11.446 4.46708 11.5458 4.51827C11.6456 4.56947 11.7346 4.6442 11.807 4.73749C11.8795 4.83079 11.9336 4.94051 11.9658 5.05939C11.998 5.17826 12.0076 5.30356 11.9939 5.42696L11.4149 10.6878C11.3914 10.8997 11.3007 11.0945 11.1597 11.2358C11.0188 11.377 10.8372 11.455 10.6493 11.455H4.66663" stroke="#6B7176" stroke-linecap="round" stroke-linejoin="round"/>
</svg>
