<svg width="13" height="12" viewBox="0 0 13 12" fill="none" xmlns="http://www.w3.org/2000/svg">
<path d="M1.52381 5.58325H4.66667V11.0833H1.52381C1.38489 11.0833 1.25165 11.0387 1.15342 10.9593C1.05519 10.88 1 10.7724 1 10.6602V6.00633C1 5.89412 1.05519 5.78651 1.15342 5.70717C1.25165 5.62783 1.38489 5.58325 1.52381 5.58325Z" fill="#8287FE" stroke="#8287FE" stroke-linecap="round" stroke-linejoin="round"/>
<path d="M4.6665 5.38406L6.59639 1C7.00586 1 7.39855 1.18476 7.68809 1.51362C7.97763 1.84249 8.14029 2.28853 8.14029 2.75362V4.06884H11.2281C11.3376 4.06888 11.4458 4.09537 11.5456 4.14657C11.6454 4.19777 11.7345 4.27249 11.8069 4.36579C11.8793 4.45908 11.9335 4.56881 11.9657 4.68768C11.9979 4.80655 12.0075 4.93185 11.9938 5.05525L11.4148 10.3161C11.3913 10.528 11.3006 10.7228 11.1596 10.864C11.0186 11.0053 10.8371 11.0833 10.6491 11.0833H4.6665" fill="#8287FE"/>
<path d="M4.6665 5.38406L6.59639 1C7.00585 1 7.39855 1.18476 7.68809 1.51362C7.97763 1.84249 8.14029 2.28853 8.14029 2.75362V4.06884H11.2281C11.3376 4.06888 11.4458 4.09537 11.5456 4.14657C11.6454 4.19777 11.7345 4.27249 11.8069 4.36579C11.8793 4.45908 11.9335 4.56881 11.9657 4.68768C11.9979 4.80655 12.0075 4.93185 11.9938 5.05525L11.4148 10.3161C11.3913 10.528 11.3006 10.7228 11.1596 10.864C11.0186 11.0053 10.8371 11.0833 10.6491 11.0833H4.6665" stroke="#8287FE" stroke-linecap="round" stroke-linejoin="round"/>
</svg>
                                 