<svg width="15" height="14" viewBox="0 0 15 14" fill="none" xmlns="http://www.w3.org/2000/svg">
<path d="M7.95849 1.28928L9.40954 4.61306C9.44466 4.69373 9.50203 4.76364 9.57545 4.81528C9.64887 4.86691 9.73556 4.8983 9.82618 4.90605L13.5403 5.21466C13.6389 5.22227 13.7329 5.25781 13.8104 5.31678C13.8879 5.37575 13.9455 5.4555 13.9759 5.54593C14.0062 5.63637 14.008 5.73343 13.9809 5.82483C13.9539 5.91623 13.8992 5.99787 13.8239 6.05941L11.0061 8.42196C10.9376 8.47979 10.8867 8.55437 10.8588 8.63778C10.8309 8.72118 10.8269 8.8103 10.8475 8.89568L11.692 12.4104C11.7143 12.5022 11.708 12.5983 11.6739 12.6867C11.6398 12.775 11.5794 12.8518 11.5003 12.9075C11.4211 12.9631 11.3266 12.9951 11.2286 12.9995C11.1307 13.0039 11.0335 12.9804 10.9493 12.9321L7.75735 11.0709C7.6798 11.0256 7.59077 11.0016 7.5 11.0016C7.40923 11.0016 7.3202 11.0256 7.24265 11.0709L4.05071 12.9321C3.96649 12.9804 3.86934 13.0039 3.77137 12.9995C3.67339 12.9951 3.57893 12.9631 3.49975 12.9075C3.42056 12.8518 3.36016 12.775 3.32606 12.6867C3.29197 12.5983 3.28569 12.5022 3.30801 12.4104L4.15253 8.89568C4.17305 8.8103 4.16914 8.72118 4.14121 8.63778C4.11327 8.55437 4.06236 8.47979 3.99387 8.42196L1.17609 6.05941C1.10076 5.99787 1.04611 5.91623 1.01906 5.82483C0.992017 5.73343 0.993785 5.63637 1.02414 5.54593C1.0545 5.4555 1.11209 5.37575 1.18962 5.31678C1.26715 5.25781 1.36113 5.22227 1.45968 5.21466L5.17382 4.90605C5.26444 4.8983 5.35113 4.86691 5.42455 4.81528C5.49797 4.76364 5.55534 4.69373 5.59046 4.61306L7.04151 1.28928C7.08027 1.20334 7.14432 1.13018 7.22578 1.07878C7.30724 1.02738 7.40256 1 7.5 1C7.59744 1 7.69276 1.02738 7.77422 1.07878C7.85568 1.13018 7.91973 1.20334 7.95849 1.28928Z" stroke="#8287FE" stroke-linecap="round" stroke-linejoin="round"/>
</svg>
