<svg width="13" height="12" viewBox="0 0 13 12" fill="none" xmlns="http://www.w3.org/2000/svg">
<path d="M6.95849 0.289277L8.40954 3.61306C8.44466 3.69373 8.50203 3.76364 8.57545 3.81528C8.64887 3.86691 8.73556 3.8983 8.82618 3.90605L12.5403 4.21466C12.6389 4.22227 12.7329 4.25781 12.8104 4.31678C12.8879 4.37575 12.9455 4.4555 12.9759 4.54593C13.0062 4.63637 13.008 4.73343 12.9809 4.82483C12.9539 4.91623 12.8992 4.99787 12.8239 5.05941L10.0061 7.42196C9.93764 7.47979 9.88673 7.55437 9.85879 7.63778C9.83086 7.72118 9.82695 7.8103 9.84747 7.89568L10.692 11.4104C10.7143 11.5022 10.708 11.5983 10.6739 11.6867C10.6398 11.775 10.5794 11.8518 10.5003 11.9075C10.4211 11.9631 10.3266 11.9951 10.2286 11.9995C10.1307 12.0039 10.0335 11.9804 9.94929 11.9321L6.75735 10.0709C6.6798 10.0256 6.59077 10.0016 6.5 10.0016C6.40923 10.0016 6.3202 10.0256 6.24265 10.0709L3.05071 11.9321C2.96649 11.9804 2.86934 12.0039 2.77137 11.9995C2.67339 11.9951 2.57893 11.9631 2.49975 11.9075C2.42056 11.8518 2.36016 11.775 2.32606 11.6867C2.29197 11.5983 2.28569 11.5022 2.30801 11.4104L3.15253 7.89568C3.17305 7.8103 3.16914 7.72118 3.14121 7.63778C3.11327 7.55437 3.06236 7.47979 2.99387 7.42196L0.176091 5.05941C0.100758 4.99787 0.0461111 4.91623 0.0190639 4.82483C-0.00798343 4.73343 -0.00621517 4.63637 0.0241448 4.54593C0.0545047 4.4555 0.112092 4.37575 0.18962 4.31678C0.267148 4.25781 0.361132 4.22227 0.45968 4.21466L4.17382 3.90605C4.26444 3.8983 4.35113 3.86691 4.42455 3.81528C4.49797 3.76364 4.55534 3.69373 4.59046 3.61306L6.04151 0.289277C6.08027 0.203344 6.14432 0.130176 6.22578 0.0787798C6.30724 0.0273832 6.40256 0 6.5 0C6.59744 0 6.69276 0.0273832 6.77422 0.0787798C6.85568 0.130176 6.91973 0.203344 6.95849 0.289277Z" fill="#8287FE"/>
</svg>
