<svg width="29" height="25" viewBox="0 0 29 25" fill="none" xmlns="http://www.w3.org/2000/svg">
<path d="M10.9277 18.6484C13.3645 18.6484 15.3398 16.6731 15.3398 14.2363C15.3398 11.7996 13.3645 9.82422 10.9277 9.82422C8.49099 9.82422 6.51562 11.7996 6.51562 14.2363C6.51562 16.6731 8.49099 18.6484 10.9277 18.6484Z" stroke="black" stroke-width="2" stroke-linecap="round" stroke-linejoin="round"/>
<path d="M3.94922 23.0605C4.57499 21.7394 5.56297 20.623 6.79825 19.8413C8.03354 19.0595 9.46537 18.6445 10.9272 18.6445C12.3891 18.6445 13.821 19.0595 15.0562 19.8413C16.2915 20.623 17.2795 21.7394 17.9053 23.0605H26.3696C26.6622 23.0605 26.9427 22.9443 27.1496 22.7375C27.3564 22.5306 27.4727 22.2501 27.4727 21.9575V2.10303C27.4727 1.81049 27.3564 1.52993 27.1496 1.32307C26.9427 1.11621 26.6622 1 26.3696 1H2.10303C1.81049 1 1.52993 1.11621 1.32307 1.32307C1.11621 1.52993 1 1.81049 1 2.10303V21.9575C1 22.2501 1.11621 22.5306 1.32307 22.7375C1.52993 22.9443 1.81049 23.0605 2.10303 23.0605H3.94922Z" stroke="black" stroke-width="2" stroke-linecap="round" stroke-linejoin="round"/>
<path d="M20.8545 18.6484H23.0605V5.41211H5.41211V7.61816" stroke="black" stroke-width="2" stroke-linecap="round" stroke-linejoin="round"/>
</svg>
